<svg width="30" height="30" viewBox="0 0 30 30" fill="none" xmlns="http://www.w3.org/2000/svg">
<g clip-path="url(#clip0_2_8)">
<path d="M27.9536 10.3224C27.9536 10.5748 27.8614 10.7932 27.677 10.9776C27.4925 11.162 27.2742 11.2542 27.0218 11.2542H11.1814V16.7722H23.2947C23.547 16.7722 23.7654 16.8644 23.9498 17.0488C24.1342 17.2332 24.2264 17.4516 24.2264 17.7039C24.2264 18.8201 24.0857 19.8927 23.8042 20.9215C23.5227 21.9504 23.1151 22.9161 22.5813 23.8188C22.0474 24.7215 21.4165 25.5368 20.6886 26.2647C19.9606 26.9927 19.1453 27.6236 18.2426 28.1574C17.34 28.6913 16.3742 29.0989 15.3454 29.3804C14.3165 29.6619 13.2391 29.8075 12.1132 29.8172C10.997 29.8172 9.92449 29.6764 8.89565 29.3949C7.8668 29.1135 6.90104 28.7058 5.99837 28.172C5.09571 27.6381 4.28039 27.0072 3.55243 26.2793C2.82448 25.5513 2.19358 24.736 1.65974 23.8333C1.12591 22.9307 0.718252 21.9649 0.436775 20.9361C0.155298 19.9072 0.00970611 18.8298 0 17.7039C0 17.4516 0.092208 17.2332 0.276624 17.0488C0.46104 16.8644 0.679427 16.7722 0.931786 16.7722H9.31786V11.2542H7.45429V13.9768C7.45429 14.2292 7.36208 14.4475 7.17767 14.632C6.99325 14.8164 6.77486 14.9086 6.5225 14.9086C6.27014 14.9086 6.05176 14.8164 5.86734 14.632C5.68293 14.4475 5.59072 14.2292 5.59072 13.9768V11.2542H2.79536C2.543 11.2542 2.32461 11.162 2.1402 10.9776C1.95578 10.7932 1.86357 10.5748 1.86357 10.3224C1.86357 10.0701 1.95578 9.8517 2.1402 9.66728C2.32461 9.48287 2.543 9.39066 2.79536 9.39066H5.59072V7.11943L5.00835 7.2359C4.7657 7.28443 4.51334 7.33296 4.25127 7.3815C3.98921 7.43003 3.7417 7.4737 3.50876 7.51253C3.27581 7.55135 3.09139 7.57076 2.95551 7.57076C2.70315 7.57076 2.48476 7.47856 2.30035 7.29414C2.11593 7.10972 2.02372 6.89134 2.02372 6.63898C2.02372 6.41574 2.09652 6.21676 2.24211 6.04205C2.3877 5.86734 2.57212 5.76058 2.79536 5.72175L26.949 1.47048C26.9878 1.46077 27.0412 1.45592 27.1092 1.45592C27.3615 1.45592 27.5799 1.54813 27.7643 1.73254C27.9487 1.91696 28.0409 2.13534 28.0409 2.3877C28.0409 2.61094 27.9681 2.80992 27.8226 2.98463C27.677 3.15934 27.4925 3.26611 27.2693 3.30493L11.1814 6.14397V9.39066H27.0218C27.2742 9.39066 27.4925 9.48287 27.677 9.66728C27.8614 9.8517 27.9536 10.0701 27.9536 10.3224ZM12.1132 27.9536C13.4333 27.9536 14.6853 27.7158 15.8695 27.2402C17.0536 26.7646 18.1019 26.1094 19.0143 25.2747C19.9266 24.44 20.6789 23.4548 21.2709 22.3192C21.863 21.1836 22.2124 19.9558 22.3192 18.6357H1.90725C2.02372 19.9558 2.37314 21.1836 2.95551 22.3192C3.53788 23.4548 4.28525 24.44 5.19762 25.2747C6.10999 26.1094 7.16311 26.7646 8.35696 27.2402C9.55081 27.7158 10.8029 27.9536 12.1132 27.9536ZM7.45429 9.39066H9.31786V6.46427L7.45429 6.79913V9.39066Z" fill="#FF9C24"/>
</g>
<defs>
<clipPath id="clip0_2_8">
<rect width="29.8172" height="29.8172" fill="white"/>
</clipPath>
</defs>
</svg>
