<svg xmlns="http://www.w3.org/2000/svg" width="32" height="32" viewBox="0 2.4 24 24" color="hsl(33 74% 57%)"><path fill="currentColor" d="M5.85 19.5q1.275-.975 2.85-1.538T12 17.4q1.725 0 3.3.563t2.85 1.537q.875-1.025 1.363-2.325T20 14.4q0-3.325-2.337-5.663T12 6.4q-3.325 0-5.663 2.337T4 14.4q0 1.475.488 2.775T5.85 19.5ZM12 15.4q-1.475 0-2.488-1.013T8.5 11.9q0-1.475 1.012-2.488T12 8.4q1.475 0 2.488 1.012T15.5 11.9q0 1.475-1.012 2.488T12 15.4Zm0 9q-2.075 0-3.9-.788t-3.175-2.137q-1.35-1.35-2.137-3.175T2 14.4q0-2.075.788-3.9t2.137-3.175q1.35-1.35 3.175-2.138T12 4.4q2.075 0 3.9.788t3.175 2.137q1.35 1.35 2.138 3.175T22 14.4q0 2.075-.788 3.9t-2.137 3.175q-1.35 1.35-3.175 2.138T12 24.4Z"/></svg>