<svg xmlns="http://www.w3.org/2000/svg" width="32" height="32" viewBox="0 2.4 24 24" color="hsl(33 74% 57%)"><path fill="currentColor" d="m9.25 24.4l-.4-3.2q-.325-.125-.613-.3t-.562-.375L4.7 21.775l-2.75-4.75l2.575-1.95Q4.5 14.9 4.5 14.738v-.675q0-.163.025-.338l-2.575-1.95l2.75-4.75l2.975 1.25q.275-.2.575-.375t.6-.3l.4-3.2h5.5l.4 3.2q.325.125.613.3t.562.375l2.975-1.25l2.75 4.75l-2.575 1.95q.025.175.025.338v.675q0 .162-.05.337l2.575 1.95l-2.75 4.75l-2.95-1.25q-.275.2-.575.375t-.6.3l-.4 3.2h-5.5Zm2.8-6.5q1.45 0 2.475-1.025T15.55 14.4q0-1.45-1.025-2.475T12.05 10.9q-1.475 0-2.488 1.025T8.55 14.4q0 1.45 1.012 2.475T12.05 17.9Z"/></svg>