<svg width="16" height="16" viewBox="0 0 16 16" fill="none" xmlns="http://www.w3.org/2000/svg">
<g clip-path="url(#clip0_2_19)">
<path d="M15 5.53906C15 5.67448 14.9505 5.79167 14.8516 5.89062C14.7526 5.98958 14.6354 6.03906 14.5 6.03906H6V9H12.5C12.6354 9 12.7526 9.04948 12.8516 9.14844C12.9505 9.2474 13 9.36458 13 9.5C13 10.099 12.9245 10.6745 12.7734 11.2266C12.6224 11.7786 12.4036 12.2969 12.1172 12.7812C11.8307 13.2656 11.4922 13.7031 11.1016 14.0938C10.7109 14.4844 10.2734 14.8229 9.78906 15.1094C9.30469 15.3958 8.78646 15.6146 8.23438 15.7656C7.68229 15.9167 7.10417 15.9948 6.5 16C5.90104 16 5.32552 15.9245 4.77344 15.7734C4.22135 15.6224 3.70312 15.4036 3.21875 15.1172C2.73438 14.8307 2.29688 14.4922 1.90625 14.1016C1.51562 13.7109 1.17708 13.2734 0.890625 12.7891C0.604167 12.3047 0.385417 11.7865 0.234375 11.2344C0.0833333 10.6823 0.00520833 10.1042 0 9.5C0 9.36458 0.0494792 9.2474 0.148438 9.14844C0.247396 9.04948 0.364583 9 0.5 9H5V6.03906H4V7.5C4 7.63542 3.95052 7.7526 3.85156 7.85156C3.7526 7.95052 3.63542 8 3.5 8C3.36458 8 3.2474 7.95052 3.14844 7.85156C3.04948 7.7526 3 7.63542 3 7.5V6.03906H1.5C1.36458 6.03906 1.2474 5.98958 1.14844 5.89062C1.04948 5.79167 1 5.67448 1 5.53906C1 5.40365 1.04948 5.28646 1.14844 5.1875C1.2474 5.08854 1.36458 5.03906 1.5 5.03906H3V3.82031L2.6875 3.88281C2.55729 3.90885 2.42188 3.9349 2.28125 3.96094C2.14062 3.98698 2.00781 4.01042 1.88281 4.03125C1.75781 4.05208 1.65885 4.0625 1.58594 4.0625C1.45052 4.0625 1.33333 4.01302 1.23438 3.91406C1.13542 3.8151 1.08594 3.69792 1.08594 3.5625C1.08594 3.44271 1.125 3.33594 1.20312 3.24219C1.28125 3.14844 1.38021 3.09115 1.5 3.07031L14.4609 0.789062C14.4818 0.783854 14.5104 0.78125 14.5469 0.78125C14.6823 0.78125 14.7995 0.830729 14.8984 0.929688C14.9974 1.02865 15.0469 1.14583 15.0469 1.28125C15.0469 1.40104 15.0078 1.50781 14.9297 1.60156C14.8516 1.69531 14.7526 1.7526 14.6328 1.77344L6 3.29688V5.03906H14.5C14.6354 5.03906 14.7526 5.08854 14.8516 5.1875C14.9505 5.28646 15 5.40365 15 5.53906ZM6.5 15C7.20833 15 7.88021 14.8724 8.51562 14.6172C9.15104 14.362 9.71354 14.0104 10.2031 13.5625C10.6927 13.1146 11.0964 12.5859 11.4141 11.9766C11.7318 11.3672 11.9193 10.7083 11.9766 10H1.02344C1.08594 10.7083 1.27344 11.3672 1.58594 11.9766C1.89844 12.5859 2.29948 13.1146 2.78906 13.5625C3.27865 14.0104 3.84375 14.362 4.48438 14.6172C5.125 14.8724 5.79688 15 6.5 15ZM4 5.03906H5V3.46875L4 3.64844V5.03906Z" fill="black"/>
</g>
<defs>
<clipPath id="clip0_2_19">
<rect width="16" height="16" fill="white"/>
</clipPath>
</defs>
</svg>
